#tb 0: 1/25
#media_type 0: video
#codec_id 0: rawvideo
#dimensions 0: 720x480
#sar 0: 0/1
0,          1,          1,        1,   518400, 0xc93c7c47
0,          2,          2,        1,   518400, 0xf0c4b44a
0,          3,          3,        1,   518400, 0x3f5dc91c
0,          4,          4,        1,   518400, 0x03dc8453
0,          5,          5,        1,   518400, 0x5e5227af
0,          6,          6,        1,   518400, 0x9e7136af
0,          7,          7,        1,   518400, 0x963a2e3a
0,          8,          8,        1,   518400, 0xa544be6c
0,          9,          9,        1,   518400, 0xefa1f63a
0,         10,         10,        1,   518400, 0x62155ff1
0,         11,         11,        1,   518400, 0x253eb857
0,         12,         12,        1,   518400, 0x73530327
0,         13,         13,        1,   518400, 0x8920c9a3
0,         14,         14,        1,   518400, 0x4bdd038c
0,         15,         15,        1,   518400, 0xea6016dd
